<?xml version="1.0" standalone="no"?>
<!DOCTYPE svg PUBLIC "-//W3C//DTD SVG 20010904//EN"
 "http://www.w3.org/TR/2001/REC-SVG-20010904/DTD/svg10.dtd">
<svg version="1.0" xmlns="http://www.w3.org/2000/svg"
 width="1024.000000pt" height="1024.000000pt" viewBox="0 0 1024.000000 1024.000000"
 preserveAspectRatio="xMidYMid meet">

<g transform="translate(0.000000,1024.000000) scale(0.100000,-0.100000)"
fill="#000000" stroke="none">
<path d="M5363 9120 c-35 -21 -45 -34 -49 -64 -6 -38 -10 -51 -27 -83 -9 -18
-17 -45 -17 -60 0 -16 -11 -45 -25 -65 -14 -20 -22 -43 -19 -51 7 -18 -31 -84
-68 -118 -25 -23 -36 -26 -101 -25 -39 1 -79 6 -87 11 -8 5 -33 10 -56 11 -23
1 -48 5 -55 10 -8 5 -16 9 -19 9 -19 3 -58 20 -72 32 -12 11 -21 12 -36 4 -13
-7 -22 -7 -31 2 -6 6 -28 12 -49 14 -55 3 -96 14 -105 29 -10 17 -37 19 -37 3
0 -8 -4 -8 -12 -1 -13 10 -254 26 -393 25 -114 0 -224 -10 -265 -23 -19 -6
-52 -13 -73 -15 -42 -5 -77 -21 -77 -35 0 -6 -6 -10 -14 -10 -7 0 -34 -11 -59
-24 -25 -14 -47 -22 -50 -19 -3 2 -31 -16 -62 -41 -30 -25 -65 -46 -76 -46
-12 0 -23 -8 -26 -20 -3 -11 -11 -20 -19 -20 -7 0 -18 -9 -24 -21 -7 -11 -25
-26 -42 -33 -16 -7 -35 -24 -41 -37 -7 -13 -30 -35 -51 -50 -21 -14 -45 -38
-53 -52 -7 -15 -22 -27 -33 -27 -10 0 -28 -15 -40 -35 -12 -19 -28 -35 -36
-35 -8 0 -14 -4 -14 -8 0 -22 -404 -403 -467 -442 -40 -24 -44 -32 -30 -60 8
-15 23 -25 42 -27 16 -3 38 -11 47 -20 11 -10 27 -13 45 -10 20 4 37 -2 62
-21 24 -18 45 -25 68 -24 19 2 44 -4 56 -13 12 -8 36 -15 54 -15 18 0 33 -4
33 -9 0 -9 57 -13 161 -12 32 0 49 -4 53 -14 3 -10 20 -14 53 -14 26 0 64 -1
83 -4 19 -2 48 0 64 4 15 5 60 4 99 -1 60 -7 75 -6 89 7 18 16 58 23 135 22
33 0 44 5 53 22 9 16 19 20 42 17 17 -3 45 3 66 14 20 10 44 18 53 18 9 0 20
7 23 15 4 13 10 14 26 5 13 -7 20 -7 20 0 0 5 8 10 19 10 10 0 24 7 31 14 13
17 90 56 109 56 6 0 24 8 39 19 54 37 87 56 97 56 6 0 24 9 40 20 17 11 37 25
46 30 40 25 76 53 114 87 22 21 45 38 51 38 16 0 267 250 283 283 8 15 17 27
21 27 3 0 30 23 59 50 29 28 61 50 70 50 9 0 30 8 46 18 17 10 42 22 58 25 22
6 27 4 27 -12 0 -10 -7 -24 -16 -32 -8 -7 -13 -21 -11 -31 3 -10 1 -20 -4 -23
-5 -4 -19 -27 -31 -53 -41 -84 -101 -175 -183 -277 -44 -55 -80 -102 -80 -105
-3 -21 -18 -49 -30 -54 -8 -3 -15 -14 -15 -24 0 -25 -39 -74 -54 -69 -6 2 -20
0 -31 -6 -11 -6 -31 -12 -45 -14 -69 -8 -121 -23 -140 -38 -19 -16 -91 -40
-108 -36 -8 1 -34 -7 -59 -19 -25 -12 -55 -20 -67 -19 -11 1 -39 -6 -61 -15
-22 -10 -53 -20 -69 -22 -16 -2 -37 -10 -45 -17 -19 -16 -143 -57 -172 -57
-11 0 -22 -7 -25 -15 -4 -9 -19 -15 -36 -15 -16 0 -43 -9 -59 -21 -16 -11 -35
-19 -42 -16 -6 2 -29 -7 -49 -20 -21 -13 -41 -22 -45 -21 -5 1 -27 -8 -50 -20
-23 -12 -47 -22 -52 -22 -6 0 -30 -13 -54 -30 -25 -16 -52 -30 -61 -30 -9 0
-16 -7 -16 -15 0 -9 -9 -15 -24 -15 -13 0 -26 -7 -30 -15 -3 -8 -12 -15 -20
-15 -9 0 -24 -10 -35 -21 -11 -12 -29 -27 -39 -33 -47 -26 -141 -93 -189 -133
-28 -24 -55 -43 -61 -43 -16 0 -292 -282 -292 -298 0 -5 -11 -19 -25 -32 -14
-13 -25 -28 -25 -35 0 -6 -9 -18 -20 -28 -11 -9 -20 -23 -20 -31 0 -8 -9 -18
-20 -21 -11 -3 -20 -13 -20 -20 0 -8 -13 -29 -29 -48 -16 -18 -33 -45 -36 -59
-4 -14 -18 -35 -31 -47 -13 -11 -24 -32 -24 -45 0 -13 -7 -29 -15 -36 -8 -7
-15 -19 -15 -26 0 -8 -4 -22 -10 -32 -5 -9 -22 -44 -38 -77 -16 -33 -39 -77
-51 -98 -11 -21 -21 -51 -21 -68 0 -16 -9 -49 -20 -71 -11 -23 -20 -50 -20
-60 0 -10 -9 -36 -20 -58 -11 -22 -20 -45 -20 -53 0 -18 -79 -97 -97 -97 -7 0
-13 -4 -13 -9 0 -5 -20 -21 -45 -35 -25 -15 -45 -31 -45 -36 0 -5 -15 -16 -34
-24 -24 -10 -38 -25 -47 -49 -7 -20 -21 -38 -31 -40 -10 -3 -21 -13 -24 -24
-3 -10 -10 -26 -15 -35 -5 -10 -9 -26 -9 -36 0 -9 -7 -28 -16 -41 -16 -22 -18
-51 -14 -211 3 -105 179 -294 285 -305 19 -2 84 -37 96 -51 6 -8 19 -14 28
-14 9 0 22 -9 28 -19 7 -12 19 -17 31 -15 14 4 20 -4 31 -45 7 -27 19 -55 27
-62 8 -6 14 -24 14 -40 0 -15 6 -32 13 -36 6 -4 38 -60 70 -124 32 -63 76
-135 98 -160 22 -24 56 -66 77 -92 43 -56 164 -181 174 -182 4 0 15 -10 23
-22 9 -13 23 -23 31 -23 8 0 24 -12 37 -27 48 -59 123 -133 134 -133 7 0 17
-9 23 -20 6 -11 15 -18 21 -15 5 4 29 -10 54 -30 26 -22 51 -35 60 -31 8 3 15
0 15 -7 0 -12 136 -87 157 -87 6 0 18 -9 28 -20 10 -11 22 -20 27 -20 4 0 17
-9 28 -20 11 -11 29 -20 40 -20 25 0 125 -44 134 -59 4 -6 19 -11 34 -11 16 0
32 -8 39 -19 8 -12 23 -18 50 -19 21 0 58 -9 83 -21 25 -11 56 -21 70 -21 14
0 31 -9 37 -19 9 -15 23 -20 51 -18 25 1 45 -5 55 -15 9 -9 25 -14 35 -12 9 3
38 0 62 -6 133 -34 268 -59 316 -60 22 0 45 -5 50 -10 10 -10 97 -20 224 -25
36 -1 73 -5 82 -9 9 -4 22 -5 28 -1 6 3 10 -3 11 -17 0 -13 3 -52 6 -88 2 -36
5 -99 5 -140 1 -244 1 -388 -1 -410 -8 -99 1 -460 11 -460 6 0 4 -8 -5 -18
-20 -22 -22 -43 -5 -60 9 -9 9 -15 1 -23 -7 -7 -9 -25 -6 -40 3 -16 1 -29 -4
-29 -5 0 -6 -24 -2 -57 3 -32 2 -63 -2 -69 -5 -6 -6 -14 -3 -17 10 -10 11 -49
3 -74 -5 -12 -4 -35 1 -52 8 -29 7 -31 -26 -37 -18 -3 -42 -3 -51 2 -24 10
-115 17 -180 13 -33 -2 -72 8 -88 21 -14 12 -18 12 -25 0 -7 -11 -16 -12 -44
-3 -24 7 -38 8 -42 1 -4 -5 -20 -8 -36 -6 -17 3 -48 -1 -69 -8 -21 -8 -45 -11
-53 -8 -8 3 -19 -3 -26 -15 -6 -12 -21 -21 -33 -21 -35 0 -94 -63 -99 -106 -5
-40 14 -74 41 -74 9 0 22 -5 28 -11 10 -10 32 -15 95 -23 14 -2 31 -7 37 -10
6 -4 20 -2 31 4 11 6 20 7 20 2 0 -7 146 -16 190 -12 8 1 39 2 68 3 28 1 52 4
52 8 0 3 17 6 38 7 61 2 165 25 200 44 18 10 38 18 44 18 6 0 21 11 34 25 20
22 22 35 23 122 1 54 3 114 5 133 2 19 -1 43 -5 52 -6 11 -4 21 4 30 8 8 10
25 7 43 -4 17 -2 41 2 54 5 14 5 27 0 30 -5 3 -8 40 -7 81 1 41 -3 99 -7 128
-7 38 -6 58 2 67 9 11 9 23 0 49 -8 27 -8 44 1 75 9 31 9 47 1 66 -8 16 -9 41
-3 72 5 27 8 198 7 381 -1 183 1 337 4 341 6 9 108 23 155 21 17 0 45 -6 62
-12 24 -9 36 -9 44 -1 7 7 23 7 50 0 31 -8 43 -7 57 5 18 17 28 18 112 17 111
-2 133 -4 137 -16 3 -7 0 -13 -5 -13 -13 0 -8 -58 7 -73 15 -15 14 -27 -4 -27
-18 0 -20 -21 -3 -38 10 -10 10 -17 0 -32 -16 -26 -15 -55 1 -72 8 -7 16 -27
20 -44 5 -28 4 -31 -13 -27 -24 6 -25 3 -3 -43 17 -35 17 -36 -2 -50 -17 -13
-18 -18 -6 -47 7 -17 12 -39 12 -47 -4 -66 -1 -223 4 -239 3 -11 1 -22 -5 -26
-8 -5 -8 -11 1 -21 6 -8 9 -24 6 -36 -3 -11 -2 -29 3 -39 7 -12 5 -19 -6 -23
-12 -4 -14 -13 -9 -29 10 -32 13 -167 4 -173 -5 -2 -3 -17 3 -32 6 -15 10 -40
9 -55 -1 -15 3 -36 9 -46 7 -14 6 -20 -4 -24 -11 -5 -13 -47 -11 -226 2 -185
5 -224 19 -245 21 -33 64 -55 129 -67 73 -14 505 -14 540 0 16 6 39 11 53 11
13 0 24 4 24 9 0 5 8 8 17 7 10 0 19 8 21 19 3 11 16 30 29 43 21 20 24 28 18
60 -12 66 -41 86 -165 109 -75 14 -93 16 -140 14 -14 -1 -38 -1 -54 -1 -16 0
-34 -4 -40 -8 -6 -4 -33 -7 -61 -8 -127 -2 -193 -8 -225 -19 l-35 -12 -2 33
c-2 48 -3 62 -3 82 0 9 -1 33 -1 52 -1 19 2 43 6 53 4 10 4 41 1 70 -11 83
-12 221 -3 235 6 7 5 18 -3 27 -11 13 -11 20 0 41 10 18 11 27 2 36 -7 7 -9
28 -5 54 3 27 1 49 -6 58 -8 10 -9 16 -1 21 14 9 13 58 -2 73 -9 9 -9 18 -2
30 13 23 10 144 -6 182 -9 21 -9 34 -2 43 11 12 8 437 -3 485 -4 16 0 24 12
28 10 3 28 11 40 17 16 7 30 7 46 0 17 -8 29 -7 48 2 13 8 43 12 69 10 34 -3
49 1 62 15 10 11 25 17 33 14 8 -3 20 -2 27 2 7 5 23 7 36 5 13 -1 30 3 37 9
10 8 30 10 58 6 33 -5 47 -3 57 9 7 8 16 12 21 9 5 -3 12 2 15 10 3 9 16 16
27 16 12 0 33 0 47 1 14 0 37 12 52 26 20 19 37 26 62 25 26 -1 39 5 50 20 11
15 29 22 63 25 29 3 53 11 61 21 7 10 18 17 25 18 37 2 96 29 100 45 3 11 14
19 25 19 12 0 24 4 27 10 3 5 20 10 36 10 17 0 32 6 35 15 4 8 17 15 29 15 13
0 36 11 52 24 16 13 40 26 53 28 14 1 29 13 35 26 5 12 15 22 22 22 6 0 18 8
25 18 7 10 25 22 41 26 17 4 27 13 27 25 0 14 5 18 19 14 12 -3 25 5 39 21 11
14 27 26 36 26 8 0 28 16 43 35 15 19 35 35 44 35 18 0 189 162 189 179 0 6
18 24 39 42 22 17 42 42 46 56 3 15 17 28 35 34 16 6 32 19 35 30 3 10 22 37
41 60 19 23 42 55 50 71 8 15 21 28 29 28 7 0 13 8 12 18 0 10 14 40 33 68 18
27 42 61 52 76 10 15 18 33 18 41 0 8 9 22 21 33 11 10 27 33 34 51 14 33 40
44 48 21 3 -10 8 -10 21 2 36 29 94 58 134 66 8 1 22 10 31 18 10 9 21 16 24
16 4 0 34 21 66 46 89 69 135 147 150 254 15 101 15 129 0 146 -6 7 -8 22 -4
32 3 11 0 26 -7 34 -31 33 -78 98 -78 107 0 6 -11 18 -25 27 -13 9 -27 25 -30
35 -4 11 -29 30 -58 43 -29 13 -65 34 -82 47 -16 14 -41 30 -55 37 -46 24 -57
37 -63 76 -3 21 -15 48 -26 60 -12 13 -18 29 -15 41 3 14 -4 29 -20 44 -14 14
-26 32 -26 41 0 9 -5 21 -11 27 -6 6 -13 28 -16 48 -3 21 -20 57 -39 82 -19
24 -34 51 -34 60 0 8 -11 28 -25 45 -14 16 -25 37 -25 47 0 10 -9 26 -20 36
-11 10 -20 27 -20 37 0 10 -7 21 -15 24 -8 4 -15 18 -15 33 0 19 -8 32 -25 41
-18 10 -25 22 -25 43 0 20 -6 30 -20 34 -10 3 -29 25 -40 49 -13 26 -36 52
-58 66 -44 27 -71 57 -72 79 0 19 -24 42 -33 32 -4 -3 -7 1 -7 10 0 10 -6 17
-12 17 -7 0 -20 15 -28 32 -8 18 -37 47 -65 66 -27 18 -51 40 -53 48 -2 7 -20
22 -40 31 -20 10 -67 48 -104 85 -42 43 -74 68 -88 68 -13 0 -39 17 -61 40
-22 22 -45 40 -53 40 -8 0 -18 9 -21 20 -3 11 -17 23 -31 26 -13 3 -24 10 -24
16 0 5 -9 6 -20 3 -13 -4 -22 -1 -26 9 -11 29 -122 106 -153 106 -20 0 -34 8
-45 26 -10 14 -23 23 -29 21 -7 -2 -23 4 -36 14 -13 11 -30 19 -38 19 -8 0
-27 9 -41 20 -14 12 -35 20 -46 19 -25 -3 -78 20 -89 38 -4 7 -14 13 -22 13
-7 0 -26 6 -42 14 -15 8 -55 22 -88 32 -33 10 -67 23 -75 30 -14 11 -50 19
-135 29 -22 3 -45 12 -51 20 -6 8 -22 15 -36 15 -14 0 -28 3 -31 6 -4 4 -23 8
-43 10 -20 2 -43 9 -51 16 -9 7 -30 14 -47 15 -60 3 -141 13 -181 21 -22 4
-53 7 -70 5 -16 -1 -34 2 -41 8 -7 5 -27 9 -45 8 -19 -2 -44 3 -57 10 -18 9
-27 10 -37 1 -8 -7 -23 -9 -37 -4 -13 4 -37 7 -53 6 -31 -2 -31 -2 -33 55 -5
117 -8 153 -15 159 -4 4 -7 20 -7 35 0 15 -6 34 -14 42 -11 10 -12 17 -4 25 8
8 8 29 1 74 -6 35 -10 72 -9 83 5 48 19 103 37 142 10 24 19 51 19 62 0 24 26
88 40 96 5 3 10 14 10 25 0 10 7 20 15 24 8 3 15 13 15 22 0 9 7 30 15 47 8
18 24 58 35 90 12 31 26 57 31 57 5 0 9 11 9 25 0 14 5 25 10 25 6 0 10 11 10
24 0 14 6 31 13 38 21 24 38 58 32 68 -3 5 3 18 15 30 11 11 20 28 20 38 0 10
5 23 11 29 6 6 9 26 7 44 -2 28 -8 35 -28 37 -14 2 -30 8 -36 13 -6 5 -23 1
-41 -11z m-1043 -375 c143 -11 220 -27 405 -85 89 -28 162 -47 220 -56 17 -3
55 -10 85 -16 l54 -10 -79 -29 c-43 -16 -87 -29 -97 -29 -10 0 -18 -4 -18 -9
0 -6 -8 -10 -17 -10 -26 0 -94 -17 -128 -31 -16 -7 -41 -13 -55 -14 -14 -1
-30 -4 -36 -8 -7 -5 -31 -10 -53 -13 -23 -3 -50 -9 -59 -14 -9 -5 -44 -15 -77
-21 -33 -7 -80 -16 -105 -22 -25 -5 -58 -11 -75 -13 -16 -3 -61 -11 -100 -19
-38 -9 -91 -18 -117 -21 -26 -3 -53 -8 -60 -10 -7 -2 -24 -7 -38 -10 -54 -10
-148 -33 -200 -49 -30 -8 -84 -24 -121 -34 -36 -10 -69 -21 -75 -24 -5 -4 -9
25 -10 70 -1 81 -21 146 -68 221 l-25 39 27 25 c31 29 84 57 107 57 9 0 18 7
21 15 3 8 22 19 42 26 19 6 50 20 68 31 19 11 44 21 56 23 49 8 120 25 129 30
5 4 72 8 150 10 78 3 144 7 148 10 3 4 19 3 36 -1 16 -3 46 -8 65 -9z m510
-326 c-19 -17 -47 -42 -62 -55 -14 -14 -32 -27 -40 -28 -51 -10 -101 -30 -137
-56 -23 -17 -46 -28 -52 -25 -5 4 -8 3 -7 -2 2 -4 -5 -19 -16 -33 -15 -21 -17
-21 -13 -5 3 11 9 39 12 63 9 59 -17 57 -44 -3 -15 -33 -26 -45 -41 -45 -13 0
-18 -4 -14 -11 3 -6 -7 -25 -23 -42 -17 -18 -40 -47 -52 -65 -12 -18 -27 -30
-32 -26 -5 3 -8 0 -7 -7 2 -7 -2 -13 -9 -14 -6 0 -15 -4 -20 -9 -5 -5 -3 -6 5
-2 20 12 14 -7 -23 -63 -19 -29 -35 -57 -35 -62 0 -15 -39 -49 -56 -49 -9 0
-29 -11 -46 -25 -16 -14 -35 -25 -42 -25 -7 0 -30 -9 -52 -19 -45 -23 -55 -11
-30 36 8 16 17 47 21 68 4 22 13 63 21 90 8 28 16 66 18 85 2 19 9 36 15 38 6
2 11 11 11 21 0 9 5 22 11 28 14 14 3 34 -15 27 -8 -3 -19 -18 -25 -32 -6 -15
-32 -50 -57 -77 -26 -28 -59 -70 -75 -94 -16 -25 -29 -41 -29 -36 0 4 -9 0
-20 -10 -11 -10 -20 -13 -20 -7 0 7 -11 11 -24 10 -14 -1 -22 -6 -19 -11 3 -5
11 -6 19 -3 8 3 17 -1 20 -9 5 -13 8 -12 21 1 25 24 25 10 2 -39 -13 -25 -27
-43 -32 -40 -6 3 -7 1 -3 -5 13 -22 -6 -37 -21 -17 -7 11 -13 14 -13 9 0 -6 5
-15 10 -20 7 -7 3 -27 -12 -61 -21 -46 -27 -51 -70 -63 -26 -6 -51 -9 -56 -6
-6 3 -15 -1 -22 -9 -9 -10 -28 -15 -54 -14 -23 1 -52 -3 -66 -8 -14 -6 -45
-11 -70 -12 -25 -1 -64 -3 -87 -4 -38 -2 -40 -1 -26 15 8 9 22 14 31 11 16 -5
16 -5 0 12 -10 11 -13 22 -7 29 47 56 59 74 73 105 8 20 32 77 54 126 21 50
42 108 46 129 6 31 11 37 27 33 10 -3 22 0 26 5 3 6 1 8 -5 4 -6 -3 -14 -2
-17 4 -4 6 9 17 28 25 41 17 175 54 237 65 25 5 59 13 75 19 17 6 48 12 70 14
57 6 155 29 155 37 0 4 10 5 23 3 13 -3 48 0 78 7 30 6 69 12 87 15 18 2 51
12 72 23 23 11 43 15 48 10 6 -6 33 -1 68 11 32 12 66 21 76 21 10 0 18 4 18
8 0 17 50 6 65 -13 16 -20 16 -20 10 1 -6 25 11 35 63 40 18 2 50 12 70 22 51
27 52 26 12 -9z m200 -287 c0 -4 7 -39 15 -77 9 -39 18 -83 20 -99 2 -15 7
-36 10 -47 8 -26 15 -180 9 -191 -3 -5 -11 -4 -18 1 -8 7 -32 8 -67 2 -85 -12
-255 -5 -251 11 4 21 44 99 80 156 29 47 51 74 152 192 16 19 30 41 30 48 0 6
5 12 10 12 6 0 10 -3 10 -8z m-1883 -214 c-3 -8 -6 -5 -6 6 -1 11 2 17 5 13 3
-3 4 -12 1 -19z m103 -28 c18 -12 2 -12 -25 0 -13 6 -15 9 -5 9 8 0 22 -4 30
-9z m1400 -189 c0 -17 -4 -33 -10 -36 -5 -3 -10 -24 -10 -45 0 -48 -8 -70 -26
-70 -8 0 -14 -7 -14 -15 0 -8 -7 -31 -16 -52 -38 -87 -47 -123 -31 -123 6 0 1
-10 -11 -22 -11 -13 -24 -36 -28 -53 -4 -16 -15 -36 -25 -43 -10 -7 -21 -29
-24 -50 -4 -20 -13 -50 -21 -65 -9 -15 -13 -34 -10 -42 3 -8 -7 -31 -21 -52
-14 -21 -30 -51 -36 -68 -6 -16 -18 -35 -27 -42 -10 -7 -20 -30 -24 -52 -3
-21 -13 -41 -21 -45 -8 -3 -24 -26 -36 -51 -12 -25 -30 -50 -40 -56 -11 -5
-19 -18 -19 -29 0 -11 -24 -48 -52 -83 -29 -34 -62 -79 -72 -100 -11 -20 -25
-37 -32 -37 -7 0 -15 -8 -19 -17 -7 -23 -51 -73 -64 -73 -5 0 -13 -9 -16 -20
-4 -12 -24 -32 -46 -46 -21 -13 -39 -29 -39 -34 0 -15 -73 -79 -91 -80 -17 0
-59 -36 -59 -50 0 -6 -5 -10 -11 -10 -6 0 -24 -14 -41 -30 -17 -17 -56 -44
-87 -60 -31 -15 -71 -42 -90 -59 -19 -17 -37 -31 -40 -32 -3 0 -16 -2 -28 -3
-24 -3 -52 -24 -91 -68 -13 -16 -29 -28 -34 -28 -6 0 -26 -11 -44 -25 -18 -14
-37 -25 -42 -25 -26 0 -29 151 -7 280 8 47 20 117 26 155 6 39 16 84 24 100 7
17 18 64 25 105 7 41 21 93 31 115 10 22 34 81 53 130 39 102 84 192 119 238
13 18 29 47 37 66 8 19 34 56 59 82 26 26 66 70 91 98 40 47 134 132 223 202
17 14 63 41 101 60 37 19 79 44 93 57 13 12 31 22 39 22 8 0 49 18 92 39 42
22 97 47 122 57 25 9 59 22 75 29 17 7 45 16 62 20 18 3 37 13 41 21 5 8 22
17 38 19 16 2 43 9 59 14 44 14 45 14 45 -18z m201 -66 c12 4 19 1 19 -6 0
-10 3 -10 12 -1 8 8 15 8 24 1 9 -7 19 -7 34 1 11 6 30 8 41 5 11 -4 27 -1 35
6 11 9 22 8 53 -6 22 -9 44 -14 51 -10 6 4 22 -1 36 -10 24 -16 26 -16 31 5 5
20 7 20 24 4 15 -13 22 -14 33 -5 8 7 25 9 40 5 15 -3 32 -1 40 5 15 13 69 9
88 -6 15 -12 31 -14 111 -16 31 -1 57 -6 57 -10 0 -5 7 -6 16 -3 9 3 25 0 35
-8 16 -11 27 -11 50 -2 26 9 33 8 43 -6 8 -11 26 -17 55 -16 26 0 49 -6 61
-17 12 -11 29 -15 49 -12 19 3 34 0 42 -10 7 -8 21 -12 31 -10 10 3 25 -1 32
-9 8 -7 37 -16 66 -18 29 -3 60 -12 70 -21 9 -8 32 -18 51 -21 19 -4 41 -12
49 -19 8 -7 36 -16 62 -19 34 -5 49 -12 53 -27 4 -10 13 -19 21 -19 8 0 22 -4
32 -9 52 -27 71 -33 82 -26 7 4 15 3 19 -2 9 -13 80 -53 95 -53 7 0 21 -9 31
-20 10 -11 23 -20 29 -20 6 0 24 -16 39 -35 20 -25 36 -35 56 -35 18 0 51 -18
97 -54 38 -29 83 -60 99 -69 17 -8 49 -34 72 -56 27 -26 51 -41 68 -41 14 0
25 -4 25 -8 0 -5 22 -32 50 -61 27 -29 55 -61 60 -72 6 -10 17 -19 24 -19 8 0
26 -14 40 -31 14 -17 30 -28 35 -25 5 3 21 -13 37 -37 16 -23 48 -61 71 -85
24 -24 43 -47 43 -52 0 -4 16 -18 35 -30 21 -13 35 -30 35 -41 0 -11 7 -22 15
-25 8 -4 15 -14 15 -24 0 -10 7 -23 15 -30 23 -19 77 -119 70 -130 -3 -5 -2
-10 3 -10 5 0 14 -12 20 -26 7 -14 17 -22 22 -19 6 3 10 -3 10 -13 0 -11 7
-25 15 -32 8 -6 17 -22 21 -33 4 -12 20 -38 35 -58 16 -20 29 -48 29 -62 0
-13 7 -30 15 -37 8 -7 15 -18 15 -26 0 -7 11 -34 25 -60 14 -26 25 -53 25 -59
0 -7 7 -26 15 -41 8 -16 15 -36 15 -45 0 -9 6 -22 14 -28 7 -6 16 -25 20 -42
7 -37 42 -89 60 -89 7 0 23 -11 36 -25 13 -14 30 -23 38 -20 24 9 222 -156
222 -185 0 -9 11 -32 25 -50 22 -30 25 -44 24 -100 -1 -36 -5 -69 -9 -75 -3
-5 -13 -29 -20 -53 -7 -24 -22 -48 -32 -53 -10 -5 -18 -16 -18 -24 0 -8 -4
-15 -9 -15 -17 0 -91 -53 -91 -65 0 -7 -17 -20 -37 -30 -21 -10 -46 -22 -56
-27 -10 -5 -22 -6 -28 -2 -5 3 -17 0 -26 -7 -8 -8 -28 -12 -44 -11 -17 2 -29
-1 -29 -8 0 -7 -8 -9 -19 -5 -34 10 -71 -31 -71 -79 0 -31 -8 -49 -30 -75 -16
-18 -27 -37 -24 -42 3 -5 -2 -12 -10 -15 -9 -3 -16 -12 -16 -19 0 -6 -9 -20
-20 -30 -11 -10 -20 -26 -20 -35 0 -10 -9 -20 -20 -23 -16 -4 -20 -14 -20 -46
0 -34 -3 -41 -20 -41 -11 0 -20 -4 -20 -9 0 -5 -29 -40 -65 -77 -36 -38 -63
-74 -61 -81 5 -12 -24 -43 -40 -43 -5 -1 -18 -15 -29 -33 -11 -18 -35 -38 -53
-46 -17 -8 -32 -21 -32 -30 0 -19 -29 -51 -46 -51 -7 0 -23 -13 -36 -30 -12
-16 -30 -30 -39 -30 -10 0 -27 -13 -39 -30 -13 -19 -30 -30 -45 -30 -13 0 -29
-10 -39 -25 -9 -14 -24 -25 -32 -25 -9 0 -25 -11 -36 -25 -11 -14 -30 -25 -43
-25 -17 0 -25 -6 -27 -22 -2 -13 -10 -24 -18 -24 -8 -1 -22 -2 -31 -3 -9 0
-28 -12 -43 -26 -15 -14 -36 -25 -46 -25 -11 0 -29 -10 -40 -22 -12 -13 -38
-28 -58 -34 -20 -6 -36 -16 -35 -22 3 -12 -9 -16 -35 -13 -8 1 -26 -6 -40 -16
-15 -9 -32 -17 -38 -18 -6 0 -18 -8 -28 -18 -11 -11 -26 -15 -41 -11 -16 4
-31 -1 -46 -15 -13 -12 -30 -21 -40 -21 -9 0 -22 -7 -29 -15 -7 -8 -25 -15
-40 -15 -15 0 -35 -9 -46 -21 -13 -15 -26 -19 -46 -15 -19 4 -42 -2 -74 -20
-25 -14 -51 -23 -57 -21 -7 2 -23 0 -37 -5 -14 -5 -49 -14 -78 -18 -29 -5 -67
-16 -84 -25 -26 -12 -38 -13 -67 -4 -28 9 -36 9 -45 -2 -20 -26 -62 -42 -87
-33 -34 11 -82 12 -97 1 -7 -5 -27 -11 -45 -13 -17 -2 -57 -6 -87 -9 -30 -4
-132 -8 -227 -10 -96 -2 -180 -8 -192 -14 -14 -8 -22 -8 -26 -1 -4 6 -15 8
-26 5 -10 -4 -19 -3 -19 2 0 11 -102 14 -115 3 -5 -4 -35 -4 -65 2 -30 5 -95
11 -145 13 -94 3 -207 18 -237 30 -11 4 -18 3 -18 -3 0 -7 -10 -7 -32 -1 -30
9 -111 25 -163 33 -11 1 -47 11 -80 21 -33 10 -67 19 -75 20 -14 1 -26 5 -75
24 -11 5 -30 5 -42 0 -18 -6 -25 -4 -33 12 -8 14 -17 18 -31 14 -10 -4 -24 -3
-31 2 -7 4 -19 9 -25 10 -23 5 -38 10 -56 18 -10 4 -21 5 -24 1 -4 -3 -14 1
-24 10 -10 9 -35 18 -56 21 -21 3 -44 14 -51 24 -7 10 -19 16 -26 13 -8 -3
-17 -1 -21 5 -3 6 -15 11 -26 11 -17 0 -63 23 -79 40 -13 13 -52 30 -70 30
-12 0 -48 18 -81 40 -33 22 -62 40 -65 40 -2 0 -23 14 -46 30 -23 17 -48 28
-56 25 -8 -3 -34 13 -59 35 -25 22 -50 40 -54 40 -5 0 -9 6 -9 13 0 8 -17 19
-37 26 -25 9 -50 28 -71 58 -20 25 -39 42 -47 39 -7 -2 -15 4 -18 14 -2 10
-24 31 -48 46 -24 16 -48 36 -53 44 -5 8 -32 38 -60 66 -46 47 -65 72 -104
141 -7 12 -24 31 -39 42 -21 17 -84 116 -73 116 9 0 -43 87 -55 91 -8 3 -21
28 -30 55 -9 27 -21 49 -26 49 -13 0 -38 60 -32 76 6 15 -11 48 -39 76 -11 11
-57 38 -102 60 -44 21 -89 43 -98 49 -10 5 -24 9 -32 9 -7 0 -19 7 -26 15 -7
8 -23 15 -36 15 -13 0 -24 6 -24 13 0 6 -21 31 -45 55 -25 24 -45 48 -45 54 0
5 -8 22 -19 36 -28 40 -28 168 0 247 31 89 85 170 112 170 5 0 14 7 20 16 7 9
24 19 40 23 17 4 27 13 27 25 0 11 11 23 30 30 16 6 43 16 59 22 23 8 34 24
56 82 15 40 32 77 36 82 4 6 12 29 18 50 5 22 16 58 25 80 8 22 15 52 16 66 0
14 14 45 30 67 17 23 30 51 30 61 0 11 5 23 10 26 6 3 10 14 10 24 0 10 7 24
15 31 8 7 15 23 15 37 0 13 12 35 27 49 15 14 28 31 28 37 2 28 47 106 70 121
14 9 25 25 25 35 0 10 9 26 19 35 11 10 22 28 25 42 4 13 10 24 14 24 5 0 26
27 48 60 21 33 43 60 47 60 10 0 97 89 97 100 0 4 11 11 25 14 14 4 28 13 32
22 7 20 81 99 93 100 6 1 13 2 18 3 14 2 81 69 75 75 -4 3 1 6 11 6 20 0 76
40 76 54 0 11 45 36 65 36 7 0 17 11 23 25 9 20 17 24 36 19 19 -4 28 0 41 20
11 16 27 26 41 26 13 0 28 9 34 20 6 11 23 23 38 26 15 4 41 18 58 31 17 12
39 23 50 23 10 0 28 7 38 15 11 8 28 15 38 15 10 0 21 7 25 16 3 8 12 13 19
10 13 -5 96 33 102 47 5 11 62 9 62 -3 0 -5 -9 -10 -20 -10 -12 0 -24 -10 -30
-24 -5 -13 -18 -27 -29 -31 -11 -3 -33 -21 -49 -39 -16 -18 -41 -36 -55 -40
-15 -3 -27 -10 -27 -15 0 -4 -21 -30 -46 -57 -26 -27 -54 -60 -62 -74 -9 -14
-29 -38 -45 -55 -30 -31 -97 -131 -97 -144 0 -4 -14 -20 -30 -35 -17 -15 -28
-31 -25 -35 3 -5 -2 -11 -10 -15 -8 -3 -15 -14 -15 -25 0 -11 -13 -49 -29 -83
-15 -35 -31 -73 -35 -85 -4 -11 -13 -27 -21 -33 -8 -7 -15 -24 -15 -38 0 -14
-7 -34 -17 -44 -9 -10 -16 -32 -15 -50 0 -18 -3 -37 -7 -43 -5 -5 -12 -30 -16
-54 -4 -24 -13 -58 -20 -75 -7 -17 -14 -56 -16 -86 -1 -30 -5 -59 -9 -65 -10
-13 -24 -175 -22 -245 0 -30 1 -89 2 -131 1 -50 6 -83 16 -95 14 -18 15 -18
33 3 10 12 21 19 25 16 3 -4 26 8 50 25 24 18 49 32 54 32 5 0 32 18 58 40 27
22 52 40 57 40 5 0 28 13 52 30 24 16 55 34 69 40 15 5 29 17 32 25 4 8 12 15
19 15 8 0 33 15 57 33 24 17 63 45 87 62 24 16 45 35 48 42 3 7 9 13 14 13 5
0 34 25 64 55 31 30 62 55 69 55 7 0 35 27 61 61 26 33 58 65 71 71 12 6 25
21 28 34 3 12 23 43 44 68 88 105 108 132 127 170 11 23 41 73 66 111 25 39
53 84 62 100 35 69 57 116 57 126 0 6 13 26 29 44 18 21 31 49 35 78 4 25 13
51 21 57 8 6 12 17 9 24 -3 7 2 19 11 26 8 7 15 18 15 24 0 6 10 29 21 51 12
21 17 41 11 43 -5 1 1 24 14 50 32 66 54 118 54 130 0 6 5 23 12 39 7 15 12
33 13 38 2 21 26 55 39 55 8 0 16 -7 20 -15 8 -21 23 -19 31 5 5 16 10 18 32
9 14 -5 34 -7 44 -4z"/>
<path d="M4720 8370 c0 -5 4 -10 9 -10 6 0 13 5 16 10 3 6 -1 10 -9 10 -9 0
-16 -4 -16 -10z"/>
<path d="M4590 8341 c0 -5 7 -14 15 -21 12 -10 15 -10 15 3 0 8 -7 17 -15 21
-8 3 -15 2 -15 -3z"/>
<path d="M4530 8309 c0 -5 5 -7 10 -4 6 3 10 8 10 11 0 2 -4 4 -10 4 -5 0 -10
-5 -10 -11z"/>
<path d="M4346 8284 c-5 -12 -2 -15 10 -10 8 3 18 6 20 6 2 0 4 5 4 10 0 16
-27 11 -34 -6z"/>
<path d="M4305 8260 c-3 -6 1 -7 9 -4 18 7 21 14 7 14 -6 0 -13 -4 -16 -10z"/>
<path d="M4023 8211 c-40 -14 -42 -17 -39 -48 3 -18 0 -33 -7 -36 -6 -2 -3 -6
6 -10 12 -5 17 -1 17 12 0 10 7 24 15 31 9 7 14 19 11 27 -3 8 2 13 14 13 17
0 38 17 29 24 -2 1 -23 -5 -46 -13z m-3 -31 c0 -5 -7 -10 -15 -10 -8 0 -15 5
-15 10 0 6 7 10 15 10 8 0 15 -4 15 -10z"/>
<path d="M3840 8184 c0 -8 5 -12 10 -9 6 3 10 10 10 16 0 5 -4 9 -10 9 -5 0
-10 -7 -10 -16z"/>
<path d="M3939 8191 c-2 -5 -11 -11 -19 -13 -20 -4 -43 -36 -37 -51 3 -7 6 -5
6 5 1 9 6 20 13 24 8 5 9 2 5 -9 -3 -9 -2 -19 3 -22 6 -4 10 3 10 14 0 12 4
21 9 21 10 0 24 30 17 37 -2 2 -6 0 -7 -6z"/>
<path d="M4240 8190 c0 -5 5 -10 11 -10 5 0 7 5 4 10 -3 6 -8 10 -11 10 -2 0
-4 -4 -4 -10z"/>
<path d="M3775 8181 c-11 -5 -24 -6 -30 -3 -5 3 -6 1 -2 -3 14 -16 54 -16 54
0 0 8 -1 15 -1 14 -1 0 -10 -4 -21 -8z"/>
<path d="M4320 8166 c0 -2 8 -10 18 -17 15 -13 16 -12 3 4 -13 16 -21 21 -21
13z"/>
<path d="M3836 8126 c7 -19 20 -21 30 -3 4 6 4 9 -1 5 -4 -4 -14 -3 -22 4 -11
8 -12 7 -7 -6z"/>
<path d="M3720 8121 c0 -6 4 -13 10 -16 6 -3 7 1 4 9 -7 18 -14 21 -14 7z"/>
<path d="M3760 8110 c8 -5 20 -10 25 -10 6 0 3 5 -5 10 -8 5 -19 10 -25 10 -5
0 -3 -5 5 -10z"/>
<path d="M3909 8093 c-12 -14 -12 -16 0 -9 8 5 17 3 22 -5 7 -11 9 -11 9 3 0
25 -16 30 -31 11z"/>
<path d="M3656 8085 c4 -8 11 -15 16 -15 6 0 5 6 -2 15 -7 8 -14 15 -16 15 -2
0 -1 -7 2 -15z"/>
<path d="M3873 8083 c7 -31 19 -53 30 -53 7 0 7 4 -1 12 -7 7 -12 20 -12 29 0
10 -5 21 -10 24 -6 4 -9 -2 -7 -12z"/>
<path d="M3586 8065 c-11 -8 -15 -15 -9 -15 6 0 16 7 23 15 16 19 11 19 -14 0z"/>
<path d="M3729 8058 c-12 -22 -11 -22 7 -8 10 8 20 15 22 16 2 1 -1 5 -7 8 -5
4 -15 -4 -22 -16z"/>
<path d="M3615 8050 c3 -5 8 -10 11 -10 2 0 4 5 4 10 0 6 -5 10 -11 10 -5 0
-7 -4 -4 -10z"/>
<path d="M4222 8030 c0 -14 2 -19 5 -12 2 6 2 18 0 25 -3 6 -5 1 -5 -13z"/>
<path d="M3770 8036 c0 -2 7 -7 16 -10 8 -3 12 -2 9 4 -6 10 -25 14 -25 6z"/>
<path d="M3734 7998 l-19 -23 23 19 c21 18 27 26 19 26 -2 0 -12 -10 -23 -22z"/>
<path d="M4185 8009 c-11 -16 -1 -19 13 -3 7 8 8 14 3 14 -5 0 -13 -5 -16 -11z"/>
<path d="M3600 8006 c0 -2 7 -7 16 -10 8 -3 12 -2 9 4 -6 10 -25 14 -25 6z"/>
<path d="M3806 8002 c-3 -5 1 -9 9 -9 8 0 12 4 9 9 -3 4 -7 8 -9 8 -2 0 -6 -4
-9 -8z"/>
<path d="M3880 7990 c0 -5 5 -10 10 -10 6 0 10 5 10 10 0 6 -4 10 -10 10 -5 0
-10 -4 -10 -10z"/>
<path d="M3758 7983 c7 -3 16 -2 19 1 4 3 -2 6 -13 5 -11 0 -14 -3 -6 -6z"/>
<path d="M3561 7964 c0 -11 3 -14 6 -6 3 7 2 16 -1 19 -3 4 -6 -2 -5 -13z"/>
<path d="M4040 7959 c0 -5 5 -7 10 -4 6 3 10 8 10 11 0 2 -4 4 -10 4 -5 0 -10
-5 -10 -11z"/>
<path d="M4183 7953 c4 -3 1 -13 -6 -21 -11 -13 -9 -14 10 -2 22 14 22 30 1
30 -6 0 -8 -3 -5 -7z"/>
<path d="M3625 7940 c3 -5 8 -10 11 -10 2 0 4 5 4 10 0 6 -5 10 -11 10 -5 0
-7 -4 -4 -10z"/>
<path d="M3757 7919 c7 -7 15 -10 18 -7 3 3 -2 9 -12 12 -14 6 -15 5 -6 -5z"/>
<path d="M3492 7898 c-7 -7 -12 -21 -12 -32 0 -21 10 -17 14 6 1 7 5 19 9 26
10 15 5 16 -11 0z"/>
<path d="M3598 7903 c6 -2 9 -10 6 -15 -4 -7 -2 -8 4 -4 18 11 14 26 -5 25
-11 0 -13 -3 -5 -6z"/>
<path d="M3790 7899 c0 -5 5 -7 10 -4 6 3 10 8 10 11 0 2 -4 4 -10 4 -5 0 -10
-5 -10 -11z"/>
<path d="M3557 7889 c7 -7 15 -10 18 -7 3 3 -2 9 -12 12 -14 6 -15 5 -6 -5z"/>
<path d="M3820 7890 c0 -5 5 -10 10 -10 6 0 10 5 10 10 0 6 -4 10 -10 10 -5 0
-10 -4 -10 -10z"/>
<path d="M3620 7874 c0 -6 8 -18 18 -27 15 -14 19 -15 19 -2 0 8 -4 12 -8 9
-4 -2 -12 4 -18 13 -6 10 -11 13 -11 7z"/>
<path d="M3780 7855 c0 -8 2 -15 4 -15 2 0 6 7 10 15 3 8 1 15 -4 15 -6 0 -10
-7 -10 -15z"/>
<path d="M3581 7834 c0 -11 3 -14 6 -6 3 7 2 16 -1 19 -3 4 -6 -2 -5 -13z"/>
<path d="M3750 7820 c-13 -8 -12 -10 3 -10 9 0 17 5 17 10 0 12 -1 12 -20 0z"/>
<path d="M3486 7808 c3 -5 10 -6 15 -3 13 9 11 12 -6 12 -8 0 -12 -4 -9 -9z"/>
<path d="M3560 7811 c0 -6 4 -13 10 -16 6 -3 7 1 4 9 -7 18 -14 21 -14 7z"/>
<path d="M3445 7750 c3 -5 8 -10 11 -10 2 0 4 5 4 10 0 6 -5 10 -11 10 -5 0
-7 -4 -4 -10z"/>
<path d="M3475 7750 c3 -5 8 -10 11 -10 2 0 4 5 4 10 0 6 -5 10 -11 10 -5 0
-7 -4 -4 -10z"/>
<path d="M3711 7736 c-14 -8 -31 -12 -38 -9 -7 3 -13 1 -13 -5 0 -5 7 -12 15
-16 8 -3 15 -1 15 4 0 5 11 12 25 16 14 3 25 10 25 15 0 11 0 11 -29 -5z"/>
<path d="M3460 7716 c0 -2 8 -10 18 -17 15 -13 16 -12 3 4 -13 16 -21 21 -21
13z"/>
<path d="M4232 7275 c-15 -33 -15 -35 2 -35 18 0 25 20 17 43 -6 17 -8 16 -19
-8z"/>
<path d="M5948 5564 c-4 -3 -12 -7 -20 -9 -56 -13 -63 -23 -88 -116 -7 -29 -9
-73 -5 -120 4 -41 7 -82 7 -91 -1 -22 75 -98 98 -98 10 0 20 7 24 15 3 8 11
13 18 10 23 -9 38 11 62 78 42 121 21 258 -49 311 -36 28 -39 29 -47 20z"/>
<path d="M4526 5535 c-16 -13 -36 -45 -47 -75 -16 -46 -17 -65 -9 -145 13
-125 33 -170 83 -188 12 -5 16 -3 11 4 -5 8 -2 9 11 2 56 -32 123 85 118 207
-6 149 -32 202 -103 213 -27 4 -42 0 -64 -18z"/>
<path d="M5427 4762 c-10 -10 -17 -23 -17 -29 0 -24 -36 -73 -60 -83 -36 -14
-111 -7 -144 15 -16 11 -35 34 -43 52 -17 43 -53 61 -88 45 -29 -13 -32 -42
-11 -93 27 -64 132 -138 191 -134 125 9 142 15 193 70 57 61 79 121 55 154
-18 26 -54 27 -76 3z"/>
<path d="M5956 1972 c-3 -5 1 -9 9 -9 8 0 12 4 9 9 -3 4 -7 8 -9 8 -2 0 -6 -4
-9 -8z"/>
<path d="M6210 1969 c0 -7 -10 -9 -27 -5 -23 5 -25 4 -10 -4 19 -12 57 -5 57
11 0 5 -4 9 -10 9 -5 0 -10 -5 -10 -11z"/>
<path d="M5788 1963 c7 -3 16 -2 19 1 4 3 -2 6 -13 5 -11 0 -14 -3 -6 -6z"/>
<path d="M5879 1959 c14 -5 28 -6 32 -2 4 4 -6 9 -24 10 -30 1 -31 1 -8 -8z"/>
<path d="M6588 1963 c6 -2 18 -2 25 0 6 3 1 5 -13 5 -14 0 -19 -2 -12 -5z"/>
<path d="M6700 1966 c0 -2 11 -6 25 -8 13 -3 22 -1 19 3 -5 9 -44 13 -44 5z"/>
<path d="M6805 1960 c-3 -6 1 -7 9 -4 18 7 21 14 7 14 -6 0 -13 -4 -16 -10z"/>
<path d="M5255 1951 c-3 -5 -2 -12 3 -15 5 -3 9 1 9 9 0 17 -3 19 -12 6z"/>
<path d="M5748 1953 c7 -3 16 -2 19 1 4 3 -2 6 -13 5 -11 0 -14 -3 -6 -6z"/>
<path d="M6128 1953 c7 -3 16 -2 19 1 4 3 -2 6 -13 5 -11 0 -14 -3 -6 -6z"/>
<path d="M6368 1953 c7 -3 16 -2 19 1 4 3 -2 6 -13 5 -11 0 -14 -3 -6 -6z"/>
<path d="M6638 1953 c7 -3 16 -2 19 1 4 3 -2 6 -13 5 -11 0 -14 -3 -6 -6z"/>
<path d="M6973 1953 c9 -2 23 -2 30 0 6 3 -1 5 -18 5 -16 0 -22 -2 -12 -5z"/>
<path d="M7020 1956 c0 -2 7 -7 16 -10 8 -3 12 -2 9 4 -6 10 -25 14 -25 6z"/>
<path d="M7108 1944 c12 -8 35 -13 50 -11 25 4 25 4 -5 6 -17 0 -35 6 -38 11
-3 6 -11 10 -18 10 -6 0 -1 -7 11 -16z"/>
<path d="M7216 1952 c-2 -4 4 -8 14 -8 10 0 16 4 14 8 -3 4 -9 8 -14 8 -5 0
-11 -4 -14 -8z"/>
<path d="M5023 1935 c0 -11 4 -12 14 -4 7 6 13 13 13 15 0 2 -6 4 -13 4 -8 0
-14 -7 -14 -15z"/>
<path d="M5118 1943 c12 -2 32 -2 45 0 12 2 2 4 -23 4 -25 0 -35 -2 -22 -4z"/>
<path d="M6438 1943 c7 -3 16 -2 19 1 4 3 -2 6 -13 5 -11 0 -14 -3 -6 -6z"/>
<path d="M4748 1933 c7 -3 16 -2 19 1 4 3 -2 6 -13 5 -11 0 -14 -3 -6 -6z"/>
<path d="M7421 1924 c0 -11 3 -14 6 -6 3 7 2 16 -1 19 -3 4 -6 -2 -5 -13z"/>
<path d="M7490 1930 c-18 -12 -2 -12 25 0 13 6 15 9 5 9 -8 0 -22 -4 -30 -9z"/>
<path d="M4630 1926 c0 -2 7 -7 16 -10 8 -3 12 -2 9 4 -6 10 -25 14 -25 6z"/>
<path d="M4698 1923 c6 -2 18 -2 25 0 6 3 1 5 -13 5 -14 0 -19 -2 -12 -5z"/>
<path d="M7745 1920 c-3 -5 -1 -10 4 -10 6 0 11 5 11 10 0 6 -2 10 -4 10 -3 0
-8 -4 -11 -10z"/>
<path d="M7837 1909 c7 -7 15 -10 18 -7 3 3 -2 9 -12 12 -14 6 -15 5 -6 -5z"/>
<path d="M4277 1903 c-3 -5 6 -9 20 -10 19 -1 22 1 12 8 -17 11 -26 11 -32 2z"/>
<path d="M7787 1899 c7 -7 15 -10 18 -7 3 3 -2 9 -12 12 -14 6 -15 5 -6 -5z"/>
<path d="M8020 1895 c-11 -13 -10 -14 4 -9 9 3 16 10 16 15 0 13 -6 11 -20 -6z"/>
<path d="M4116 1892 c-3 -5 1 -9 9 -9 8 0 12 4 9 9 -3 4 -7 8 -9 8 -2 0 -6 -4
-9 -8z"/>
<path d="M4048 1883 c7 -3 16 -2 19 1 4 3 -2 6 -13 5 -11 0 -14 -3 -6 -6z"/>
<path d="M4198 1883 c12 -2 30 -2 40 0 9 3 -1 5 -23 4 -22 0 -30 -2 -17 -4z"/>
<path d="M3480 1851 c0 -5 9 -7 20 -4 11 3 20 7 20 9 0 2 -9 4 -20 4 -11 0
-20 -4 -20 -9z"/>
<path d="M8355 1850 c-3 -5 -2 -10 4 -10 5 0 13 5 16 10 3 6 2 10 -4 10 -5 0
-13 -4 -16 -10z"/>
<path d="M3253 1843 c9 -2 23 -2 30 0 6 3 -1 5 -18 5 -16 0 -22 -2 -12 -5z"/>
<path d="M3358 1843 c7 -3 16 -2 19 1 4 3 -2 6 -13 5 -11 0 -14 -3 -6 -6z"/>
<path d="M8566 1832 c-2 -4 4 -8 15 -8 10 0 19 4 19 8 0 4 -6 8 -14 8 -8 0
-17 -4 -20 -8z"/>
<path d="M3288 1823 c7 -3 16 -2 19 1 4 3 -2 6 -13 5 -11 0 -14 -3 -6 -6z"/>
<path d="M2928 1803 c7 -3 16 -2 19 1 4 3 -2 6 -13 5 -11 0 -14 -3 -6 -6z"/>
<path d="M2700 1796 c0 -2 7 -7 16 -10 8 -3 12 -2 9 4 -6 10 -25 14 -25 6z"/>
<path d="M2777 1793 c-3 -5 6 -9 20 -10 19 -1 22 1 12 8 -17 11 -26 11 -32 2z"/>
<path d="M2977 1789 c7 -7 15 -10 18 -7 3 3 -2 9 -12 12 -14 6 -15 5 -6 -5z"/>
<path d="M8743 1786 c0 -15 22 -15 34 0 4 5 4 6 -1 2 -5 -4 -14 -3 -21 2 -8 7
-12 5 -12 -4z"/>
<path d="M2670 1780 c-9 -6 -10 -10 -3 -10 6 0 15 5 18 10 8 12 4 12 -15 0z"/>
<path d="M2405 1735 l-30 -24 29 7 c16 5 30 16 32 25 3 21 5 22 -31 -8z"/>
<path d="M8868 1743 c7 -3 16 -2 19 1 4 3 -2 6 -13 5 -11 0 -14 -3 -6 -6z"/>
<path d="M2266 1716 c3 -8 15 -11 32 -8 24 5 25 6 7 13 -31 12 -45 10 -39 -5z"/>
<path d="M8916 1721 c-4 -6 -3 -11 3 -11 5 0 13 -9 16 -20 4 -11 11 -17 17
-14 6 4 6 9 1 13 -5 3 -14 14 -20 25 -7 12 -13 15 -17 7z"/>
<path d="M2185 1699 c-4 -6 -14 -8 -24 -4 -13 5 -14 4 -3 -6 10 -11 15 -10 29
4 10 9 14 17 11 17 -4 0 -10 -5 -13 -11z"/>
<path d="M2218 1703 c6 -2 18 -2 25 0 6 3 1 5 -13 5 -14 0 -19 -2 -12 -5z"/>
<path d="M2044 1664 c-18 -14 -18 -15 4 -4 12 6 28 8 34 4 7 -4 8 -3 4 4 -10
16 -18 15 -42 -4z"/>
<path d="M1938 1624 c-21 -13 -38 -30 -37 -37 0 -9 2 -9 6 1 5 13 53 42 88 53
l20 7 -20 0 c-11 1 -37 -10 -57 -24z"/>
<path d="M9001 1584 c0 -11 3 -14 6 -6 3 7 2 16 -1 19 -3 4 -6 -2 -5 -13z"/>
<path d="M1916 1557 c3 -10 9 -15 12 -12 3 3 0 11 -7 18 -10 9 -11 8 -5 -6z"/>
<path d="M8977 1526 c-4 -10 -1 -13 8 -9 8 3 12 9 9 14 -7 12 -11 11 -17 -5z"/>
<path d="M1942 1500 c0 -14 2 -19 5 -12 2 6 2 18 0 25 -3 6 -5 1 -5 -13z"/>
<path d="M1990 1456 c0 -2 9 -6 20 -9 11 -3 18 -1 14 4 -5 9 -34 13 -34 5z"/>
<path d="M8798 1433 c6 -2 18 -2 25 0 6 3 1 5 -13 5 -14 0 -19 -2 -12 -5z"/>
<path d="M8715 1420 c-19 -8 -19 -9 3 -9 12 -1 22 4 22 9 0 6 -1 10 -2 9 -2 0
-12 -4 -23 -9z"/>
<path d="M8610 1400 c-23 -7 -23 -8 -3 -9 12 -1 25 4 28 9 3 6 5 10 3 9 -2 -1
-14 -5 -28 -9z"/>
<path d="M8380 1350 c-13 -8 -12 -10 3 -10 9 0 17 5 17 10 0 12 -1 12 -20 0z"/>
<path d="M8190 1341 c0 -6 5 -13 10 -16 6 -3 10 1 10 9 0 9 -4 16 -10 16 -5 0
-10 -4 -10 -9z"/>
<path d="M2277 1329 c7 -7 15 -10 18 -7 3 3 -2 9 -12 12 -14 6 -15 5 -6 -5z"/>
<path d="M7950 1326 c0 -2 18 -6 39 -8 22 -2 37 0 35 4 -5 8 -74 11 -74 4z"/>
<path d="M2378 1313 c7 -3 16 -2 19 1 4 3 -2 6 -13 5 -11 0 -14 -3 -6 -6z"/>
<path d="M2450 1310 c-9 -6 -10 -10 -3 -10 6 0 15 5 18 10 8 12 4 12 -15 0z"/>
<path d="M7830 1310 c-9 -6 -10 -10 -3 -10 6 0 15 5 18 10 8 12 4 12 -15 0z"/>
<path d="M7916 1305 c-11 -8 -15 -15 -9 -15 6 0 16 7 23 15 16 19 11 19 -14 0z"/>
<path d="M2630 1290 c-18 -12 -2 -12 25 0 13 6 15 9 5 9 -8 0 -22 -4 -30 -9z"/>
<path d="M7758 1293 c7 -3 16 -2 19 1 4 3 -2 6 -13 5 -11 0 -14 -3 -6 -6z"/>
<path d="M7717 1279 c7 -7 15 -10 18 -7 3 3 -2 9 -12 12 -14 6 -15 5 -6 -5z"/>
<path d="M7428 1273 c7 -3 16 -2 19 1 4 3 -2 6 -13 5 -11 0 -14 -3 -6 -6z"/>
<path d="M7540 1270 c0 -5 5 -10 11 -10 5 0 7 5 4 10 -3 6 -8 10 -11 10 -2 0
-4 -4 -4 -10z"/>
<path d="M3054 1226 c11 -9 24 -16 30 -16 12 0 7 5 -24 19 -24 11 -24 11 -6
-3z"/>
<path d="M7025 1230 c-3 -5 1 -10 10 -10 9 0 13 5 10 10 -3 6 -8 10 -10 10 -2
0 -7 -4 -10 -10z"/>
<path d="M6832 1214 c-7 -8 -8 -14 -3 -14 10 0 25 19 20 25 -2 1 -10 -3 -17
-11z"/>
<path d="M4960 1210 c0 -5 5 -10 11 -10 5 0 7 5 4 10 -3 6 -8 10 -11 10 -2 0
-4 -4 -4 -10z"/>
<path d="M6788 1213 c7 -3 16 -2 19 1 4 3 -2 6 -13 5 -11 0 -14 -3 -6 -6z"/>
<path d="M3708 1203 c7 -3 16 -2 19 1 4 3 -2 6 -13 5 -11 0 -14 -3 -6 -6z"/>
<path d="M3785 1200 c27 -12 43 -12 25 0 -8 5 -22 9 -30 9 -10 0 -8 -3 5 -9z"/>
<path d="M6701 1206 c2 -2 18 -6 34 -10 22 -5 26 -4 15 4 -14 9 -59 15 -49 6z"/>
<path d="M4028 1193 c6 -2 18 -2 25 0 6 3 1 5 -13 5 -14 0 -19 -2 -12 -5z"/>
<path d="M4250 1196 c0 -2 11 -6 25 -8 13 -3 22 -1 19 3 -5 9 -44 13 -44 5z"/>
<path d="M4768 1193 c7 -3 16 -2 19 1 4 3 -2 6 -13 5 -11 0 -14 -3 -6 -6z"/>
<path d="M5160 1189 c0 -5 5 -7 10 -4 6 3 10 8 10 11 0 2 -4 4 -10 4 -5 0 -10
-5 -10 -11z"/>
<path d="M5975 1191 c-3 -5 -2 -12 3 -15 5 -3 9 1 9 9 0 17 -3 19 -12 6z"/>
<path d="M6200 1190 c-9 -6 -10 -10 -3 -10 6 0 15 5 18 10 8 12 4 12 -15 0z"/>
<path d="M6520 1192 c0 -5 7 -9 15 -9 8 0 12 4 9 9 -3 4 -9 8 -15 8 -5 0 -9
-4 -9 -8z"/>
<path d="M5757 1179 c7 -7 15 -10 18 -7 3 3 -2 9 -12 12 -14 6 -15 5 -6 -5z"/>
<path d="M5798 1183 c7 -3 16 -2 19 1 4 3 -2 6 -13 5 -11 0 -14 -3 -6 -6z"/>
<path d="M6070 1180 c-9 -6 -10 -10 -3 -10 6 0 15 5 18 10 8 12 4 12 -15 0z"/>
</g>
</svg>
